<svg xmlns="http://www.w3.org/2000/svg" viewBox="0 0 44.86 59.65"><defs><style>.cls-1{fill:none;stroke:#000;stroke-miterlimit:10;stroke-width:3px;}</style></defs><title>Zoom in</title><g id="Layer_2" data-name="Layer 2"><g id="Layer_1-2" data-name="Layer 1"><circle class="cls-1" cx="20.63" cy="20.63" r="19.13"/><path d="M32.31,34.76h8a0,0,0,0,1,0,0V56.84a4,4,0,0,1-4,4h0a4,4,0,0,1-4-4V34.76A0,0,0,0,1,32.31,34.76Z" transform="translate(-19.04 24.57) rotate(-30)"/><polygon points="26.98 14.88 28.8 18.02 23.12 21.3 26.39 26.98 23.25 28.79 19.97 23.12 14.29 26.4 12.47 23.25 18.16 19.97 14.88 14.29 18.02 12.48 21.3 18.16 26.98 14.88"/></g></g></svg>