<svg xmlns="http://www.w3.org/2000/svg" viewBox="0 0 84.89 73"><defs><style>.cls-1,.cls-3{fill:none;stroke:#000;}.cls-1{stroke-linejoin:round;stroke-width:3px;}.cls-2{fill:#fff;}.cls-3{stroke-miterlimit:10;stroke-width:2px;}</style></defs><title>Print</title><g id="Layer_2" data-name="Layer 2"><g id="Layer_1-2" data-name="Layer 1"><path d="M84.89,16.51V36.26a.64.64,0,0,1-.64.64H.65A.64.64,0,0,1,0,36.26V16.51a.64.64,0,0,1,.64-.64H19.24a.64.64,0,0,1,.64.64v5.75a.64.64,0,0,0,.64.64H64.36a.63.63,0,0,0,.64-.64V16.51a.65.65,0,0,1,.65-.64h18.6A.64.64,0,0,1,84.89,16.51Z"/><path d="M84.88,40.64V57.31a.64.64,0,0,1-.64.64H61.45a.64.64,0,0,1-.64-.64v-7a.64.64,0,0,0-.64-.64H24.71a.64.64,0,0,0-.64.64v7a.64.64,0,0,1-.64.64H.64A.64.64,0,0,1,0,57.31V40.64A.64.64,0,0,1,.64,40h83.6A.64.64,0,0,1,84.88,40.64Z"/><rect class="cls-1" x="24.07" y="49.71" width="36.74" height="21.79"/><circle class="cls-2" cx="75.46" cy="29.34" r="4.9"/><line class="cls-3" x1="30.69" y1="57.2" x2="54.19" y2="57.2"/><line class="cls-3" x1="30.69" y1="64.01" x2="54.19" y2="64.01"/><polyline class="cls-1" points="24.66 16.87 24.66 1.5 60.22 1.5 60.22 16.87"/></g></g></svg>