<svg xmlns="http://www.w3.org/2000/svg" viewBox="0 0 72.4 73"><defs><style>.cls-1,.cls-2{fill:none;stroke:#000;stroke-linejoin:round;stroke-width:2px;}.cls-2{stroke-linecap:round;}</style></defs><title>Sign</title><g id="Layer_2" data-name="Layer 2"><g id="Layer_1-2" data-name="Layer 1"><polygon class="cls-1" points="53 1 53 72 1 72 1 14.5 14.17 1 53 1"/><polygon class="cls-1" points="14.17 1 14.17 14.5 1 14.5 14.17 1"/><line class="cls-2" x1="8" y1="21.5" x2="45" y2="21.5"/><line class="cls-2" x1="8" y1="28.5" x2="38" y2="28.5"/><line class="cls-2" x1="8" y1="35.5" x2="32" y2="35.5"/><line class="cls-2" x1="8" y1="41.5" x2="25" y2="41.5"/><line class="cls-2" x1="19" y1="62.5" x2="42" y2="62.5"/><path d="M72.06,16.6,36.74,51.8l-12.58,5a.21.21,0,0,1-.27-.28L29,44,64.3,8.81a1.15,1.15,0,0,1,1.61,0L72.06,15A1.13,1.13,0,0,1,72.06,16.6Z"/></g></g></svg>