<svg xmlns="http://www.w3.org/2000/svg" viewBox="0 0 51.73 51.73"><title>Text</title><g id="Layer_2" data-name="Layer 2"><g id="Layer_1-2" data-name="Layer 1"><rect x="4.14" y="29.25" width="26.69" height="9.98" transform="translate(-19.09 22.39) rotate(-45)"/><rect x="0.85" y="47.35" width="2.32" height="4.73" rx="1.16" ry="1.16" transform="translate(35.74 13.14) rotate(45)"/><path d="M6.58,42.18l3,3L5.41,48.09,3.64,46.32l2.94-4.14M6.33,39.1,1.27,46.19a.48.48,0,0,0,0,.6l3.66,3.65a.38.38,0,0,0,.29.12.49.49,0,0,0,.3-.1l7.1-5.06-6.3-6.3Z"/><path d="M47,10.45,41.28,4.73l3.55-3.55a4,4,0,0,1,5.71,0h0a4,4,0,0,1,0,5.72Z"/><path d="M41.22,6.49a4,4,0,0,1,2.84,6.85L29.66,27.75,24,22.07l14.4-14.4a4,4,0,0,1,2.84-1.18m0-2A6,6,0,0,0,37,6.25L21.15,22.07l8.51,8.5L45.48,14.76a6,6,0,0,0,0-8.51h0a6,6,0,0,0-4.26-1.76Z"/></g></g></svg>